<svg xmlns="http://www.w3.org/2000/svg" xmlns:xlink="http://www.w3.org/1999/xlink" width="24" height="24" viewBox="0 0 24 24">
    <defs>
        <path id="b" d="M12.586 13H3a1 1 0 0 1 0-2h9.586l-2.293-2.293a1 1 0 0 1 1.414-1.414l4 4a1 1 0 0 1 0 1.414l-4 4a1 1 0 0 1-1.414-1.414L12.586 13zM14 23a1 1 0 0 1 0-2h5a1 1 0 0 0 1-1V4a1 1 0 0 0-1-1h-5a1 1 0 0 1 0-2h5a3 3 0 0 1 3 3v16a3 3 0 0 1-3 3h-5z"/>
        <path id="a" d="M0 0h24v24H0z"/>
        <mask id="d" width="24" height="24" x="0" y="0" fill="#fff">
            <use xlink:href="#a"/>
        </mask>
    </defs>
    <g fill="none" fill-rule="evenodd">
        <mask id="c" fill="#fff">
            <use xlink:href="#b"/>
        </mask>
        <use fill="#000" fill-rule="nonzero" xlink:href="#b"/>
        <g mask="url(#c)">
            <path fill="#000" d="M0 0h24v24H0z"/>
            <use fill="#50C4D2" stroke="#979797" stroke-dasharray="2" stroke-opacity=".265" stroke-width="2" mask="url(#d)" xlink:href="#a"/>
        </g>
    </g>
</svg>
