<?xml version="1.0" encoding="utf-8"?>
<!-- Generator: Adobe Illustrator 21.0.0, SVG Export Plug-In . SVG Version: 6.00 Build 0)  -->
<svg version="1.1" id="Layer_1" xmlns="http://www.w3.org/2000/svg" xmlns:xlink="http://www.w3.org/1999/xlink" x="0px" y="0px"
	 viewBox="0 0 24 24" style="enable-background:new 0 0 24 24;" xml:space="preserve">
<style type="text/css">
	.st0{fill:#FFFFFF;}
</style>
<g>
	<path id="b_1_" class="st0" d="M18.6,13H9c-0.6,0-1-0.4-1-1s0.4-1,1-1h9.6l-2.3-2.3c-0.4-0.4-0.4-1,0-1.4c0.4-0.4,1-0.4,1.4,0
		c0,0,0,0,0,0l4,4c0.4,0.4,0.4,1,0,1.4l-4,4c-0.4,0.4-1,0.4-1.4,0c-0.4-0.4-0.4-1,0-1.4L18.6,13z M10,21c0.6,0,1,0.4,1,1s-0.4,1-1,1
		H5c-1.7,0-3-1.3-3-3V4c0-1.7,1.3-3,3-3h5c0.6,0,1,0.4,1,1s-0.4,1-1,1H5C4.4,3,4,3.4,4,4v16c0,0.6,0.4,1,1,1H10z"/>
</g>
</svg>
