<svg xmlns="http://www.w3.org/2000/svg" viewBox="0 0 1515.06 411.41"><defs><style>.cls-1{fill:#fff;}</style></defs><title>PTI Wordrmrk_Eng_White_RGB</title><g id="Layer_2" data-name="Layer 2"><g id="Layer_1-2" data-name="Layer 1"><path class="cls-1" d="M620.48,390.81V0h104V390.81Z"/><polygon class="cls-1" points="573.61 0 263.95 0 336.36 79.29 388.2 79.29 388.2 390.81 492.23 390.81 492.23 79.29 573.61 79.29 573.61 0"/><path class="cls-1" d="M297.26,101.5l-72.12-79-9.93-10.87C192.11,3.9,164.79,0,133.83,0H0V390.81H104v-126H144c91.66,0,155.76-44.42,155.76-135.52A154.15,154.15,0,0,0,297.26,101.5ZM157.57,182H104V82.88h53.54l45.13,49.55Z"/><path class="cls-1" d="M941.23,60.89V92.61H924.46V2.49h29.36a51.43,51.43,0,0,1,15.64,2.12,30.14,30.14,0,0,1,10.91,5.92,23.2,23.2,0,0,1,6.36,9.1,31.71,31.71,0,0,1,2.05,11.59,32,32,0,0,1-2.18,12,24.87,24.87,0,0,1-6.54,9.38,30.41,30.41,0,0,1-10.9,6.11,48.52,48.52,0,0,1-15.33,2.18Zm0-13.09h12.59a25.24,25.24,0,0,0,8-1.15,15,15,0,0,0,5.67-3.3,13.54,13.54,0,0,0,3.36-5.23A19.91,19.91,0,0,0,972,31.22a18.07,18.07,0,0,0-1.13-6.54,13,13,0,0,0-3.36-5,15,15,0,0,0-5.67-3.14,26.56,26.56,0,0,0-8-1.09H941.23Z"/><path class="cls-1" d="M1028,27.67a31.07,31.07,0,0,1,11.12,1.93,24.42,24.42,0,0,1,8.76,5.64,25.73,25.73,0,0,1,5.73,9.1,34.33,34.33,0,0,1,2.06,12.31,23.26,23.26,0,0,1-.15,2.9,4.57,4.57,0,0,1-.57,1.81,2.26,2.26,0,0,1-1.09.93,4.65,4.65,0,0,1-1.75.28h-39.51q.69,9.85,5.3,14.46t12.21,4.61a21.16,21.16,0,0,0,6.45-.87,30.1,30.1,0,0,0,4.74-1.93c1.35-.71,2.53-1.35,3.55-1.93a5.93,5.93,0,0,1,3-.87,3.32,3.32,0,0,1,1.62.38,3.55,3.55,0,0,1,1.19,1.06l4.49,5.61a25.59,25.59,0,0,1-5.73,5,32.1,32.1,0,0,1-6.64,3.24,36.28,36.28,0,0,1-7,1.71,50.46,50.46,0,0,1-6.95.5,34.15,34.15,0,0,1-12.4-2.21,27.71,27.71,0,0,1-10-6.55,30.64,30.64,0,0,1-6.67-10.72,41.48,41.48,0,0,1-2.43-14.8A35.43,35.43,0,0,1,999.37,47a29.63,29.63,0,0,1,6.08-10,28.7,28.7,0,0,1,9.66-6.76A31.87,31.87,0,0,1,1028,27.67Zm.31,11q-6.72,0-10.53,3.8t-4.86,10.78h28.92a19.23,19.23,0,0,0-.81-5.64,13.08,13.08,0,0,0-2.49-4.64,11.79,11.79,0,0,0-4.24-3.15A14.46,14.46,0,0,0,1028.29,38.7Z"/><path class="cls-1" d="M1070.67,92.61V28.67h9a4.85,4.85,0,0,1,3.3.87,5,5,0,0,1,1.25,3l.93,7.73a30.36,30.36,0,0,1,8-9.35,16.9,16.9,0,0,1,10.34-3.43,13.4,13.4,0,0,1,7.86,2.18l-2,11.53a2.35,2.35,0,0,1-.81,1.59,2.74,2.74,0,0,1-1.68.47,10.43,10.43,0,0,1-2.55-.44,17.26,17.26,0,0,0-4.3-.43,13.05,13.05,0,0,0-8.23,2.65,20.38,20.38,0,0,0-5.8,7.76V92.61Z"/><path class="cls-1" d="M1142.77,10a8.72,8.72,0,0,1-.81,3.74,10.23,10.23,0,0,1-2.15,3.05,10.35,10.35,0,0,1-3.15,2.09,9.65,9.65,0,0,1-3.86.78,9.29,9.29,0,0,1-3.77-.78,9.93,9.93,0,0,1-5.17-5.14,9,9,0,0,1-.78-3.74,9.61,9.61,0,0,1,.78-3.86,9.83,9.83,0,0,1,2.09-3.12A9.93,9.93,0,0,1,1129,1a9.29,9.29,0,0,1,3.77-.78,9.66,9.66,0,0,1,3.86.78,10.3,10.3,0,0,1,3.15,2.09A10,10,0,0,1,1142,6.17,9.28,9.28,0,0,1,1142.77,10Zm-2.31,18.64V92.61h-15.39V28.67Z"/><path class="cls-1" d="M1187.64,27.67a35.06,35.06,0,0,1,13,2.3,28,28,0,0,1,9.94,6.55,29,29,0,0,1,6.36,10.34,39.4,39.4,0,0,1,2.25,13.65,39.57,39.57,0,0,1-2.25,13.71,29.6,29.6,0,0,1-6.36,10.41,27.61,27.61,0,0,1-9.94,6.61,37.86,37.86,0,0,1-26,0,27.9,27.9,0,0,1-10-6.61,29.73,29.73,0,0,1-6.42-10.41,39,39,0,0,1-2.27-13.71,38.88,38.88,0,0,1,2.27-13.65,29.1,29.1,0,0,1,6.42-10.34,28.27,28.27,0,0,1,10-6.55A35.32,35.32,0,0,1,1187.64,27.67Zm0,54q8,0,11.81-5.36t3.83-15.7q0-10.34-3.83-15.77t-11.81-5.42q-8.1,0-12,5.45t-3.87,15.73q0,10.28,3.87,15.67T1187.64,81.7Z"/><path class="cls-1" d="M1278.69,92.61a3.77,3.77,0,0,1-3.92-2.8l-1.25-6.17a38.5,38.5,0,0,1-4.17,4,26.55,26.55,0,0,1-4.71,3.12,24.27,24.27,0,0,1-5.42,2,26,26,0,0,1-6.26.72A20.82,20.82,0,0,1,1235.84,85,30.32,30.32,0,0,1,1231,74.79a51.79,51.79,0,0,1-1.71-14,43.49,43.49,0,0,1,1.93-13.21,32,32,0,0,1,5.54-10.6,25.91,25.91,0,0,1,8.66-7,25,25,0,0,1,11.34-2.52,22.21,22.21,0,0,1,9.16,1.71,24,24,0,0,1,6.79,4.58V0h15.4V92.61Zm-20.5-11.28a15.74,15.74,0,0,0,8.16-2,24.16,24.16,0,0,0,6.36-5.67V45a15.09,15.09,0,0,0-5.7-4.49,16.79,16.79,0,0,0-6.64-1.31,14.92,14.92,0,0,0-6.33,1.31,12.36,12.36,0,0,0-4.8,4,19.36,19.36,0,0,0-3,6.73,38.54,38.54,0,0,0-1.06,9.63,43,43,0,0,0,.9,9.5,18.78,18.78,0,0,0,2.59,6.36,9.87,9.87,0,0,0,4.11,3.55A13.09,13.09,0,0,0,1258.19,81.33Z"/><path class="cls-1" d="M1325.93,10a8.72,8.72,0,0,1-.81,3.74,10.23,10.23,0,0,1-2.15,3.05,10.35,10.35,0,0,1-3.15,2.09,9.65,9.65,0,0,1-3.86.78,9.29,9.29,0,0,1-3.77-.78,9.93,9.93,0,0,1-5.17-5.14,9,9,0,0,1-.78-3.74,9.61,9.61,0,0,1,.78-3.86,9.83,9.83,0,0,1,2.09-3.12A9.93,9.93,0,0,1,1312.18,1,9.29,9.29,0,0,1,1316,.19a9.66,9.66,0,0,1,3.86.78A10.3,10.3,0,0,1,1323,3.05a10,10,0,0,1,2.15,3.12A9.28,9.28,0,0,1,1325.93,10Zm-2.31,18.64V92.61h-15.39V28.67Z"/><path class="cls-1" d="M1388.43,42.19a7.88,7.88,0,0,1-1.34,1.37,3.1,3.1,0,0,1-1.9.5,4.23,4.23,0,0,1-2.31-.72q-1.12-.71-2.68-1.62a20.26,20.26,0,0,0-3.71-1.62,17.12,17.12,0,0,0-5.33-.71,16.21,16.21,0,0,0-7.1,1.46,13.46,13.46,0,0,0-5.08,4.2,19,19,0,0,0-3,6.64,35.64,35.64,0,0,0-1,8.82,34.41,34.41,0,0,0,1.09,9.1,19.35,19.35,0,0,0,3.15,6.7,13.49,13.49,0,0,0,5,4.11,15.15,15.15,0,0,0,6.61,1.4,16.39,16.39,0,0,0,5.95-.9,18.84,18.84,0,0,0,3.83-2q1.56-1.09,2.71-2a4.08,4.08,0,0,1,2.59-.9,3.12,3.12,0,0,1,2.8,1.43l4.43,5.61a27.94,27.94,0,0,1-5.55,5,30,30,0,0,1-6.2,3.24,31.5,31.5,0,0,1-6.64,1.71,47.14,47.14,0,0,1-6.79.5,28.37,28.37,0,0,1-11.16-2.21,26.06,26.06,0,0,1-9.13-6.45,31,31,0,0,1-6.17-10.38,40.08,40.08,0,0,1-2.27-14,40.64,40.64,0,0,1,2-13.06,29.53,29.53,0,0,1,5.95-10.41,27.35,27.35,0,0,1,9.72-6.89,33.54,33.54,0,0,1,13.34-2.49,31.75,31.75,0,0,1,12.56,2.3,30.75,30.75,0,0,1,9.69,6.61Z"/><path class="cls-1" d="M987.41,151.45v13.77H960.3v76.34H943.54V165.22H916.3V151.45Z"/><path class="cls-1" d="M1013.4,176.63a31.07,31.07,0,0,1,11.12,1.93,24.42,24.42,0,0,1,8.76,5.64,25.73,25.73,0,0,1,5.73,9.1,34.33,34.33,0,0,1,2.06,12.31,23.26,23.26,0,0,1-.15,2.9,4.57,4.57,0,0,1-.57,1.81,2.26,2.26,0,0,1-1.09.93,4.65,4.65,0,0,1-1.75.28H998q.69,9.85,5.3,14.46t12.21,4.61a21.16,21.16,0,0,0,6.45-.87,30.1,30.1,0,0,0,4.74-1.93c1.35-.71,2.53-1.35,3.55-1.93a5.93,5.93,0,0,1,3-.87,3.32,3.32,0,0,1,1.62.38,3.55,3.55,0,0,1,1.19,1.06l4.49,5.61a25.59,25.59,0,0,1-5.73,5,32.1,32.1,0,0,1-6.64,3.24,36.28,36.28,0,0,1-7,1.71,50.46,50.46,0,0,1-6.95.5,34.15,34.15,0,0,1-12.4-2.21,27.71,27.71,0,0,1-10-6.55A30.64,30.64,0,0,1,985.1,223a41.48,41.48,0,0,1-2.43-14.8,35.43,35.43,0,0,1,2.12-12.31,29.63,29.63,0,0,1,6.08-10,28.7,28.7,0,0,1,9.66-6.76A31.87,31.87,0,0,1,1013.4,176.63Zm.31,11q-6.72,0-10.53,3.8t-4.86,10.78h28.92a19.23,19.23,0,0,0-.81-5.64,13.08,13.08,0,0,0-2.49-4.64,11.79,11.79,0,0,0-4.24-3.15A14.46,14.46,0,0,0,1013.7,187.66Z"/><path class="cls-1" d="M1101,191.15a7.88,7.88,0,0,1-1.34,1.37,3.1,3.1,0,0,1-1.9.5,4.23,4.23,0,0,1-2.31-.72q-1.12-.71-2.68-1.62a20.26,20.26,0,0,0-3.71-1.62,17.12,17.12,0,0,0-5.33-.71,16.21,16.21,0,0,0-7.1,1.46,13.46,13.46,0,0,0-5.08,4.2,19,19,0,0,0-3,6.64,35.64,35.64,0,0,0-1,8.82,34.41,34.41,0,0,0,1.09,9.1,19.35,19.35,0,0,0,3.15,6.7,13.49,13.49,0,0,0,5,4.11,15.15,15.15,0,0,0,6.61,1.4,16.39,16.39,0,0,0,5.95-.9,18.84,18.84,0,0,0,3.83-2q1.56-1.09,2.71-2a4.08,4.08,0,0,1,2.59-.9,3.12,3.12,0,0,1,2.8,1.43l4.43,5.61a27.94,27.94,0,0,1-5.55,5,30,30,0,0,1-6.2,3.24,31.5,31.5,0,0,1-6.64,1.71,47.14,47.14,0,0,1-6.79.5,28.37,28.37,0,0,1-11.16-2.21,26.06,26.06,0,0,1-9.13-6.45,31,31,0,0,1-6.17-10.38,40.08,40.08,0,0,1-2.27-14,40.64,40.64,0,0,1,2-13.06,29.53,29.53,0,0,1,5.95-10.41,27.35,27.35,0,0,1,9.72-6.89,33.54,33.54,0,0,1,13.34-2.49,31.75,31.75,0,0,1,12.56,2.3,30.75,30.75,0,0,1,9.69,6.61Z"/><path class="cls-1" d="M1118,241.57V149h15.39v35.58a32.61,32.61,0,0,1,8.23-5.73,23.83,23.83,0,0,1,10.53-2.18,22.91,22.91,0,0,1,9.28,1.77,18.36,18.36,0,0,1,6.76,5,21.89,21.89,0,0,1,4.11,7.67,32.59,32.59,0,0,1,1.4,9.81v40.7h-15.39v-40.7q0-5.85-2.71-9.07t-8.14-3.21a16,16,0,0,0-7.48,1.81,26.8,26.8,0,0,0-6.61,4.92v46.24Z"/><path class="cls-1" d="M1191.38,241.57V177.63h9.41a3.78,3.78,0,0,1,3.93,2.8l1.06,5a34.76,34.76,0,0,1,4.08-3.61,28.53,28.53,0,0,1,4.55-2.8,23,23,0,0,1,5.14-1.81,27,27,0,0,1,6-.62,22.91,22.91,0,0,1,9.28,1.77,18.36,18.36,0,0,1,6.76,5,21.89,21.89,0,0,1,4.11,7.67,32.59,32.59,0,0,1,1.4,9.81v40.7H1231.7v-40.7q0-5.85-2.71-9.07t-8.14-3.21a16,16,0,0,0-7.48,1.81,26.8,26.8,0,0,0-6.61,4.92v46.24Z"/><path class="cls-1" d="M1283.42,159a8.8,8.8,0,0,1-.81,3.74,10.2,10.2,0,0,1-5.3,5.14,9.68,9.68,0,0,1-3.87.78,9.27,9.27,0,0,1-3.77-.78,10,10,0,0,1-3.09-2.09,10.15,10.15,0,0,1-2.09-3.05,9,9,0,0,1-.78-3.74,9.61,9.61,0,0,1,.78-3.86,9.74,9.74,0,0,1,5.17-5.2,9.27,9.27,0,0,1,3.77-.78,9.68,9.68,0,0,1,3.87.78,10.21,10.21,0,0,1,3.14,2.09,10.09,10.09,0,0,1,2.15,3.12A9.36,9.36,0,0,1,1283.42,159Zm-2.3,18.64v63.94h-15.4V177.63Z"/><path class="cls-1" d="M1345.93,191.15a7.88,7.88,0,0,1-1.34,1.37,3.1,3.1,0,0,1-1.9.5,4.23,4.23,0,0,1-2.31-.72q-1.12-.71-2.68-1.62a20.26,20.26,0,0,0-3.71-1.62,17.12,17.12,0,0,0-5.33-.71,16.21,16.21,0,0,0-7.1,1.46,13.46,13.46,0,0,0-5.08,4.2,19,19,0,0,0-3,6.64,35.64,35.64,0,0,0-1,8.82,34.41,34.41,0,0,0,1.09,9.1,19.35,19.35,0,0,0,3.15,6.7,13.49,13.49,0,0,0,5,4.11,15.15,15.15,0,0,0,6.61,1.4,16.39,16.39,0,0,0,5.95-.9,18.84,18.84,0,0,0,3.83-2q1.56-1.09,2.71-2a4.08,4.08,0,0,1,2.59-.9,3.12,3.12,0,0,1,2.8,1.43l4.43,5.61a27.94,27.94,0,0,1-5.55,5,30,30,0,0,1-6.2,3.24,31.5,31.5,0,0,1-6.64,1.71,47.14,47.14,0,0,1-6.79.5,28.37,28.37,0,0,1-11.16-2.21,26.06,26.06,0,0,1-9.13-6.45,31,31,0,0,1-6.17-10.38,40.08,40.08,0,0,1-2.27-14,40.64,40.64,0,0,1,2-13.06,29.53,29.53,0,0,1,5.95-10.41,27.35,27.35,0,0,1,9.72-6.89,33.54,33.54,0,0,1,13.34-2.49,31.75,31.75,0,0,1,12.56,2.3,30.75,30.75,0,0,1,9.69,6.61Z"/><path class="cls-1" d="M1413,241.57h-6.92a7.43,7.43,0,0,1-3.42-.65,4.21,4.21,0,0,1-1.87-2.65l-1.37-4.55a52.6,52.6,0,0,1-4.77,3.83,28.88,28.88,0,0,1-4.83,2.77,24.63,24.63,0,0,1-5.3,1.68,31.9,31.9,0,0,1-6.23.56,24.54,24.54,0,0,1-7.48-1.09,16.14,16.14,0,0,1-5.89-3.28,14.94,14.94,0,0,1-3.83-5.44,19.39,19.39,0,0,1-1.37-7.57,15,15,0,0,1,1.9-7.16,17.9,17.9,0,0,1,6.32-6.38,40.42,40.42,0,0,1,11.78-4.72A75.19,75.19,0,0,1,1398,205v-3.77q0-6.47-2.71-9.58t-7.88-3.11a19.08,19.08,0,0,0-6.23.87,24.14,24.14,0,0,0-4.33,2q-1.84,1.09-3.39,2a6.9,6.9,0,0,1-3.43.87,4.45,4.45,0,0,1-2.68-.81,6.34,6.34,0,0,1-1.81-2l-2.81-4.92a38,38,0,0,1,26.61-10.09,25.75,25.75,0,0,1,10,1.84,21.19,21.19,0,0,1,7.44,5.11,21.76,21.76,0,0,1,4.64,7.82,30.05,30.05,0,0,1,1.59,10Zm-29.92-9.6a20.6,20.6,0,0,0,4.36-.43,16.67,16.67,0,0,0,3.77-1.29,20.29,20.29,0,0,0,3.43-2.11,31.54,31.54,0,0,0,3.33-3v-10.7a62.67,62.67,0,0,0-11.25.85,29.74,29.74,0,0,0-7.26,2.17,9.33,9.33,0,0,0-3.89,3.08,6.83,6.83,0,0,0-1.15,3.83q0,4.08,2.4,5.84A10.33,10.33,0,0,0,1383.13,232Z"/><path class="cls-1" d="M1447.08,149v92.61h-15.4V149Z"/><path class="cls-1" d="M942.79,390.53H926V300.41h16.83Z"/><path class="cls-1" d="M964.66,390.53V326.59h9.41a3.78,3.78,0,0,1,3.93,2.8l1.06,5a34.76,34.76,0,0,1,4.08-3.61,28.53,28.53,0,0,1,4.55-2.8,23,23,0,0,1,5.14-1.81,27,27,0,0,1,6-.62,22.91,22.91,0,0,1,9.28,1.77,18.36,18.36,0,0,1,6.76,5A21.89,21.89,0,0,1,1019,340a32.59,32.59,0,0,1,1.4,9.81v40.7H1005v-40.7q0-5.85-2.71-9.07t-8.14-3.21a16,16,0,0,0-7.48,1.81,26.8,26.8,0,0,0-6.61,4.92v46.24Z"/><path class="cls-1" d="M1076,339.05a4.12,4.12,0,0,1-1.31,1.4,3.38,3.38,0,0,1-1.75.41,5.51,5.51,0,0,1-2.4-.62c-.85-.41-1.83-.88-3-1.4a26.93,26.93,0,0,0-3.83-1.4,18.41,18.41,0,0,0-5.08-.62,11.86,11.86,0,0,0-7.17,1.93,6,6,0,0,0-2.61,5,4.81,4.81,0,0,0,1.34,3.46,12,12,0,0,0,3.55,2.46,34.77,34.77,0,0,0,5,1.9q2.8.84,5.73,1.84t5.73,2.27a20.11,20.11,0,0,1,5,3.24,15.15,15.15,0,0,1,3.55,4.7,14.91,14.91,0,0,1,1.34,6.61,21.24,21.24,0,0,1-1.68,8.51,18.7,18.7,0,0,1-4.92,6.73,23.08,23.08,0,0,1-8,4.42,37.24,37.24,0,0,1-17.39,1,37.63,37.63,0,0,1-6-1.65,33.4,33.4,0,0,1-5.36-2.49,26,26,0,0,1-4.33-3.12l3.55-5.86a5.09,5.09,0,0,1,1.62-1.62,4.56,4.56,0,0,1,2.37-.56,5,5,0,0,1,2.71.81q1.28.81,3,1.74a26.46,26.46,0,0,0,4,1.75,17.47,17.47,0,0,0,5.77.81,14.93,14.93,0,0,0,4.7-.66,9.83,9.83,0,0,0,3.24-1.71,6.46,6.46,0,0,0,1.87-2.46,7.45,7.45,0,0,0,.59-2.9,5.16,5.16,0,0,0-1.34-3.68,11.73,11.73,0,0,0-3.55-2.49,34.45,34.45,0,0,0-5-1.9q-2.83-.84-5.8-1.84a52.78,52.78,0,0,1-5.8-2.34,19.62,19.62,0,0,1-5-3.39,15.37,15.37,0,0,1-3.55-5,17.58,17.58,0,0,1-1.34-7.23,18.43,18.43,0,0,1,1.56-7.48,17.54,17.54,0,0,1,4.58-6.2,22.76,22.76,0,0,1,7.54-4.24,31.49,31.49,0,0,1,10.44-1.59,32,32,0,0,1,12,2.18,27.16,27.16,0,0,1,9,5.73Z"/><path class="cls-1" d="M1095,411.41V326.59h9.41a4.63,4.63,0,0,1,2.56.68,3.22,3.22,0,0,1,1.37,2.12l1.25,5.92a32.34,32.34,0,0,1,8.88-7.17,24.11,24.11,0,0,1,11.74-2.74,21,21,0,0,1,9.57,2.18,21.48,21.48,0,0,1,7.48,6.33,30.33,30.33,0,0,1,4.86,10.22,51.42,51.42,0,0,1,1.71,13.93,43.7,43.7,0,0,1-1.93,13.27,32.41,32.41,0,0,1-5.52,10.6,25.43,25.43,0,0,1-8.66,7,25.17,25.17,0,0,1-11.37,2.52,22.84,22.84,0,0,1-9.19-1.65,22.43,22.43,0,0,1-6.76-4.58v26.17Zm29.92-73.85a15.7,15.7,0,0,0-8.2,2,23.61,23.61,0,0,0-6.32,5.7V374a14.56,14.56,0,0,0,5.7,4.52,17.12,17.12,0,0,0,6.64,1.28,14.9,14.9,0,0,0,6.32-1.31,12.26,12.26,0,0,0,4.8-4,19.68,19.68,0,0,0,3-6.76,38.53,38.53,0,0,0,1.06-9.63,43,43,0,0,0-.9-9.5,18.43,18.43,0,0,0-2.59-6.33,10.21,10.21,0,0,0-4.08-3.55A12.73,12.73,0,0,0,1124.88,337.56Z"/><path class="cls-1" d="M1194.37,325.59a31.07,31.07,0,0,1,11.12,1.93,24.42,24.42,0,0,1,8.76,5.64,25.73,25.73,0,0,1,5.73,9.1,34.33,34.33,0,0,1,2.06,12.31,23.26,23.26,0,0,1-.15,2.9,4.57,4.57,0,0,1-.57,1.81,2.26,2.26,0,0,1-1.09.93,4.65,4.65,0,0,1-1.75.28H1179q.69,9.85,5.3,14.46t12.21,4.61a21.16,21.16,0,0,0,6.45-.87,30.1,30.1,0,0,0,4.74-1.93c1.35-.71,2.53-1.35,3.55-1.93a5.93,5.93,0,0,1,3-.87,3.32,3.32,0,0,1,1.62.38,3.55,3.55,0,0,1,1.19,1.06l4.49,5.61a25.59,25.59,0,0,1-5.73,5,32.1,32.1,0,0,1-6.64,3.24,36.28,36.28,0,0,1-7,1.71,50.46,50.46,0,0,1-6.95.5,34.15,34.15,0,0,1-12.4-2.21,27.71,27.71,0,0,1-10-6.55,30.64,30.64,0,0,1-6.67-10.72,41.48,41.48,0,0,1-2.43-14.8,35.43,35.43,0,0,1,2.12-12.31,29.63,29.63,0,0,1,6.08-10,28.7,28.7,0,0,1,9.66-6.76A31.87,31.87,0,0,1,1194.37,325.59Zm.31,11q-6.72,0-10.53,3.8t-4.86,10.78h28.92a19.23,19.23,0,0,0-.81-5.64,13.08,13.08,0,0,0-2.49-4.64,11.79,11.79,0,0,0-4.24-3.15A14.46,14.46,0,0,0,1194.68,336.62Z"/><path class="cls-1" d="M1282,340.11a7.88,7.88,0,0,1-1.34,1.37,3.1,3.1,0,0,1-1.9.5,4.23,4.23,0,0,1-2.31-.72q-1.12-.71-2.68-1.62a20.26,20.26,0,0,0-3.71-1.62,17.12,17.12,0,0,0-5.33-.71,16.21,16.21,0,0,0-7.1,1.46,13.46,13.46,0,0,0-5.08,4.2,19,19,0,0,0-3,6.64,35.64,35.64,0,0,0-1,8.82,34.41,34.41,0,0,0,1.09,9.1,19.35,19.35,0,0,0,3.15,6.7,13.49,13.49,0,0,0,5,4.11,15.15,15.15,0,0,0,6.61,1.4,16.39,16.39,0,0,0,5.95-.9,18.84,18.84,0,0,0,3.83-2q1.56-1.09,2.71-2a4.08,4.08,0,0,1,2.59-.9,3.12,3.12,0,0,1,2.8,1.43l4.43,5.61a27.94,27.94,0,0,1-5.55,5,30,30,0,0,1-6.2,3.24,31.5,31.5,0,0,1-6.64,1.71,47.14,47.14,0,0,1-6.79.5,28.37,28.37,0,0,1-11.16-2.21,26.06,26.06,0,0,1-9.13-6.45,31,31,0,0,1-6.17-10.38,40.08,40.08,0,0,1-2.27-14,40.64,40.64,0,0,1,2-13.06,29.53,29.53,0,0,1,5.95-10.41,27.35,27.35,0,0,1,9.72-6.89,33.54,33.54,0,0,1,13.34-2.49,31.75,31.75,0,0,1,12.56,2.3,30.75,30.75,0,0,1,9.69,6.61Z"/><path class="cls-1" d="M1320,391.53q-8.29,0-12.78-4.7t-4.49-13V338.12h-6.48a3,3,0,0,1-3.05-3.24v-6.11l10.28-1.68,3.24-17.45a3.07,3.07,0,0,1,1.15-1.93,3.65,3.65,0,0,1,2.27-.69h8v20.13H1335v11h-16.83v34.65a6.78,6.78,0,0,0,1.5,4.67,5.07,5.07,0,0,0,4,1.68,7.22,7.22,0,0,0,2.39-.34,12.86,12.86,0,0,0,1.69-.72c.48-.25.9-.49,1.27-.72a2.14,2.14,0,0,1,1.13-.34,1.76,1.76,0,0,1,1.12.34,5.28,5.28,0,0,1,.93,1l4.61,7.48a23.27,23.27,0,0,1-7.72,4.24A28.78,28.78,0,0,1,1320,391.53Z"/><path class="cls-1" d="M1368.43,308a8.72,8.72,0,0,1-.81,3.74,10.23,10.23,0,0,1-2.15,3.05,10.35,10.35,0,0,1-3.15,2.09,9.65,9.65,0,0,1-3.86.78,9.29,9.29,0,0,1-3.77-.78,9.93,9.93,0,0,1-5.17-5.14,9,9,0,0,1-.78-3.74,9.61,9.61,0,0,1,.78-3.86,9.83,9.83,0,0,1,2.09-3.12,9.93,9.93,0,0,1,3.08-2.09,9.29,9.29,0,0,1,3.77-.78,9.66,9.66,0,0,1,3.86.78,10.3,10.3,0,0,1,3.15,2.09,10,10,0,0,1,2.15,3.12A9.28,9.28,0,0,1,1368.43,308Zm-2.31,18.64v63.94h-15.39V326.59Z"/><path class="cls-1" d="M1413.29,325.59a35.06,35.06,0,0,1,13,2.3,28,28,0,0,1,9.94,6.55,29,29,0,0,1,6.36,10.34,42.77,42.77,0,0,1,0,27.36,29.6,29.6,0,0,1-6.36,10.41,27.61,27.61,0,0,1-9.94,6.61,37.86,37.86,0,0,1-26,0,27.9,27.9,0,0,1-10-6.61,29.73,29.73,0,0,1-6.42-10.41,42.28,42.28,0,0,1,0-27.36,29.1,29.1,0,0,1,6.42-10.34,28.27,28.27,0,0,1,10-6.55A35.32,35.32,0,0,1,1413.29,325.59Zm0,54q8,0,11.81-5.36t3.83-15.7q0-10.34-3.83-15.77t-11.81-5.42q-8.1,0-12,5.45t-3.87,15.73q0,10.28,3.87,15.67T1413.29,379.62Z"/><path class="cls-1" d="M1459.35,390.53V326.59h9.41a3.78,3.78,0,0,1,3.93,2.8l1.06,5a34.76,34.76,0,0,1,4.08-3.61,28.53,28.53,0,0,1,4.55-2.8,23,23,0,0,1,5.14-1.81,27,27,0,0,1,6-.62,22.94,22.94,0,0,1,9.29,1.77,18.41,18.41,0,0,1,6.76,5,22,22,0,0,1,4.11,7.67,32.59,32.59,0,0,1,1.4,9.81v40.7h-15.39v-40.7q0-5.85-2.71-9.07t-8.13-3.21a16.06,16.06,0,0,0-7.48,1.81,26.78,26.78,0,0,0-6.6,4.92v46.24Z"/><rect class="cls-1" x="818.53" y="2.49" width="11.89" height="388.32"/></g></g></svg>