<svg xmlns="http://www.w3.org/2000/svg" viewBox="0 0 1828.87 409.24"><defs><style>.cls-1{fill:#fff;}</style></defs><title>PTI Wordrmrk_White_RGB</title><g id="Layer_2" data-name="Layer 2"><g id="Layer_1-2" data-name="Layer 1"><path class="cls-1" d="M857.79,52c-21.38-34.47-52.16-52-92-52-39.23,0-70,17.52-91.51,52.07-20.85,33.53-31.51,78.21-31.66,132.8,0,48.26,8.78,113.83,26.1,194.89l1.13,5.3h78.54l-2.69-8.66a663.33,663.33,0,0,1-29.91-196.76c.16-39.34,5.43-68.54,15.68-86.8C741,75.82,752.6,67.19,766,67.19c13.16-.8,24.57,7.76,34.34,25.27,10.41,18.7,15.69,48,15.69,87.16a703.87,703.87,0,0,1-27.55,196.89L786,385.06h76.6l1.1-5.33c16.92-81.4,25.5-147,25.5-194.86C889.21,130.29,878.64,85.58,857.79,52Z"/><path class="cls-1" d="M240.12,103.43c0-44.91-20.44-70.8-60.75-77-48-7.32-49.38-17-49.38-18.11V1.67h-83V8.37c0,43.56,22.24,67.62,66.34,71.49h29.15l27.33,30-27.33,30H99.73l-.54,60.47,32.55.3c15.09,0,25.45,3.87,31.65,11.82,6.64,8.5,10,21.24,10,37.88,0,31.36-5.14,52.05-14.86,59.85a59.64,59.64,0,0,1-35.25,13.4,47.31,47.31,0,0,1-35.54-15.17C78.08,298.28,73.17,281,73.17,257c0-11.54,1.43-20.7,5.26-34.08L7.17,203C2.08,223.32,0,240.53,0,257c0,42.43,11.85,75.69,35.21,98.88s53,34.91,88.08,34.91c34.64,0,64.19-11.83,87.84-35.15s35.6-58.94,35.44-105.79c.16-26.29-12.45-52.86-37.5-79C229.68,154.69,240.12,132,240.12,103.43Z"/><path class="cls-1" d="M550.13,62.38h0c-25.93-22.49-50.4-36.14-72.8-40.62l4.59-19.14H404.15L409,18.82c.35,1.14.68,2.34,1,3.57l-.84,61.5-2.57,135.2,73.21,20.38L474.51,83.89c12.57,7.23,23.61,17.79,32.89,31.45,11.58,17,17.45,46.71,17.45,88.2,0,36.54-6.35,65.59-18.87,86.35-12,19.84-32.72,30.86-61.49,32.76-27.54,0-48.16-10.69-61.3-31.77-13.76-22.08-20.75-51.07-20.75-86.15,0-42.34,5.69-72.76,16.92-90.4a117.35,117.35,0,0,1,7.29-10.11L387.77,30c-16.56,7.61-35.08,19.9-53.19,36-30.07,26.72-45.31,73-45.31,137.51,0,53.21,12.92,97.87,38.42,132.74,26,35.55,64.76,53.57,115.32,53.57h1.35c46.88,0,84.55-16.92,112-50.27,27.2-33,41.23-78.46,41.71-135.34C595.5,135.51,579.38,87.78,550.13,62.38Z"/><rect class="cls-1" x="965.64" y="0.58" width="11.89" height="384.49"/><path class="cls-1" d="M1078.46,93.36c16.4,0,24.72-9.75,24.72-29,0-10.68-4.16-17.84-12.26-21.27,6.54-4.27,9.86-9.5,9.86-15.57,0-10.69-6-16.92-17.91-18.52-11.19-2-13-4.14-13.15-5.25l-.06-.6H1058v.66c0,7.07,6.05,11.53,18,13.26,8.73.73,13,4.12,13,10.34,0,6.89-3.12,10.23-9.42,10.23h-7.65V49h6.57c3.92,0,7,1.07,9,3.16,2.49,2.51,3.74,6.62,3.7,12.22.06,6.87-1.34,11.82-4.18,14.71-2.05,2.09-4.93,3.16-8.56,3.19-4.18,0-7.34-1.17-9.38-3.37s-3.07-5.6-3-10.07V62.42H1054V69C1054,85.16,1062.21,93.36,1078.46,93.36Z"/><path class="cls-1" d="M1139.81,117.54c16.25,0,24.5-8.12,24.5-24.15V55.91c0-15.76-7.76-23.77-23.06-23.81-15.53,0-23.41,7-23.41,20.72.08,12.26,5.76,19.48,16.88,21.45l.78.14V62.67l-.51-.12c-3.74-.88-5.55-4.16-5.51-10a8.35,8.35,0,0,1,2.17-6.18c1.9-1.91,5.13-2.88,9.72-2.88,3.5,0,6.18.92,8,2.73,2,2,3,5.31,3,9.72V94c.06,4.27-1,7.5-3,9.59s-5.25,3.14-9.49,3.14h-.23c-4.13,0-7.27-1-9.32-3.07s-3.19-5.35-3.21-9.52l1.93-7.74-11.37-3L1115.08,94C1115.2,109.62,1123.52,117.54,1139.81,117.54Z"/><path class="cls-1" d="M1202.83,93.91l.82.21v-11l-.41-.17c-9.68-4-14.38-11.43-14.38-22.7s3.92-16.7,12-16.7c3.55,0,6.33,1,8.26,2.93,2.44,2.46,3.66,6.57,3.62,12.25l.66,14.27h9.51l.66-14.3c0-10.2,3.95-15.15,12.06-15.15h.07c7.91,0,11.8,5.47,11.87,16.7,0,11.42-4.79,18.84-14.65,22.7l-.42.17v11l.82-.2c17.32-4.26,26.17-15.6,26.29-33.69h0c0-18.65-7.93-28.11-23.59-28.11-8.18.08-14.19,3.55-17.87,10.33-3.71-6.82-9.68-10.29-17.76-10.33l-5.24,2.14c8.25-10,23.67-17.83,45.9-23.23l.74-.18-4-10.18-.56.14c-24.71,6.2-41.13,14.8-48.79,25.59s-11.56,22.1-11.64,33.85C1176.92,78.32,1185.69,89.65,1202.83,93.91Z"/><path class="cls-1" d="M1287.81,94.46l.64.25L1291.2,87l-.22-.29c-4.89-6.42-7.37-14.54-7.37-24.12,0-12.89,4.13-19.15,12.63-19.15h.08a10.73,10.73,0,0,1,7.91,2.94c3,3,4.55,8.48,4.53,16.21,0,9.52-2.48,17.63-7.48,24.12l-.23.29,2.83,7.67.63-.24c10.77-4.17,16.23-14.89,16.23-31.84,0-20.25-8.24-30.51-24.5-30.51s-24.65,10.26-24.72,30.52C1271.63,79.54,1277.11,90.25,1287.81,94.46Z"/><path class="cls-1" d="M1358.07,93.9l.87.28V83.11l-.39-.18c-9.42-4.27-13.94-11-13.82-20.65,0-7.81,1.38-13.24,4.24-16.13a8.87,8.87,0,0,1,6.61-2.56c8.39,0,12.46,4.63,12.46,14.08l.59,15.07h9.7l.48-15.11c0-4.7,1-8.25,3.1-10.56s5.22-3.47,9.41-3.49c7.35,0,10.94,6.15,11,18.7,0,10.08-4.57,16.83-14.08,20.64l-.41.17V94.17l.86-.26c17.07-5.23,25.69-15.87,25.62-31.63,0-11.41-2.44-19.7-7.36-24.65C1403.2,33.89,1398,32,1391.51,32c-8.12,0-14.17,3.52-18,10.46-3.24-6.95-9.24-10.46-17.87-10.46-15.19,0-22.93,10.19-23,30.28C1332.64,77.69,1341.2,88.32,1358.07,93.9Z"/><path class="cls-1" d="M1456.11,93.62c-11.87-9.27-17.87-20-17.83-32,0-7.82,1.38-13.19,4.17-16a8.11,8.11,0,0,1,6-2.32h.07c7.61,0,11.31,6.27,11.31,19.15,0,10.83,2.57,18.8,7.52,23.69,4,4,9.75,6,17,6h.37c7.72,0,13.6-2.52,17.5-7.49s5.85-12.42,5.87-22.23c0-20.17-7.9-30.4-23.47-30.4-9.16,0-15.67,3.78-19.37,11.24-3.69-7.46-9.42-11.24-17.07-11.24-14.54,0-22,9.94-22,29.54.11,12.12,5.9,23.66,17.19,34.33l-.33.85a18.73,18.73,0,0,0-10.85,4.43l-.43.38,5.61,8.57.57-.52a20.72,20.72,0,0,1,7-4.25,24.87,24.87,0,0,1,8.37-1.36c13.12.67,22.37,5,27.5,12.81l.2.3h12l-.3-.88C1488.74,104.7,1476.42,97.06,1456.11,93.62Zm15.12-31.12c0-7.53,1.56-12.91,4.63-16a11.87,11.87,0,0,1,8.72-3.19h.23a9.88,9.88,0,0,1,7.24,2.7c2.94,2.91,4.43,8.27,4.43,15.93,0,8-1.53,13.5-4.52,16.48a9.78,9.78,0,0,1-7.16,2.69h-.14C1475.62,81.11,1471.22,75,1471.22,62.5Z"/><path class="cls-1" d="M1535,53.6l.55,12.27h10l.61-12.3c0-6.65,2.07-9.9,6.33-9.94,4.61,0,6.88,4,7,12.24V94c0,8.57-4.13,12.74-12.63,12.74-8.65,0-12.86-4.17-12.87-12.66l1.74-14.37-11.4-1.88L1522.59,94c0,15.61,8.14,23.56,24.22,23.63s24.07-8,24.14-23.63V55.86c0-9.1-2-15.68-5.92-19.57-2.88-2.85-6.82-4.3-11.72-4.3h-.09c-5.3,0-9.59,3.29-12.76,9.8-2.68-6.51-8.77-9.8-18.13-9.8h-3.46V43h3.53C1530.78,43,1534.89,46.46,1535,53.6Z"/><path class="cls-1" d="M1607.65,94.63a25.5,25.5,0,0,0-9.24,5.38l-.44.42,7.16,8.87.51-.68c3.79-5,9.43-7.53,16.72-7.53,25.6,2,38.58,7.22,38.58,15.44v.66h11.39l0-.7c-.78-14.64-14.35-22.94-40.3-24.69-22.15-2.28-34.43-12.46-36.47-30.17,0-7.27,1.34-12.35,4.12-15.13a9.44,9.44,0,0,1,6.95-2.6h.13c8.12,0,12.08,4.17,12.12,12.77l.6,14.85H1629l.6-14.87c0-5,1.1-8.58,3.27-10.74,1.71-1.71,4.17-2.57,7.32-2.57h.19c3.27,0,5.82.89,7.59,2.65,2.18,2.17,3.28,5.75,3.28,10.69l.66,14.84h9.69l.59-14.88c0-4.46,1-7.79,3.09-9.88,1.9-1.9,4.75-2.86,8.49-2.86h.19c7.69,0,11.43,5.56,11.43,16.87,0,7.63-3.56,13.76-10.58,18.23l-.31.2V90.09l.88-.32c14.55-5.23,21.95-15,22-29,0-10.12-2.28-17.6-6.9-22.24-3.87-3.89-9.43-5.86-16.51-5.86-7.59,0-13.27,3.33-16.94,9.9-3.54-6.87-9.17-10.39-16.75-10.48-7,0-12.44,3.46-16.16,10.29-3.64-6.44-9.49-9.71-17.42-9.71-15.46,0-23.29,9.77-23.29,29C1585,78,1593.12,89.06,1607.65,94.63Z"/><path class="cls-1" d="M1725.57,94.46l.64.25L1729,87l-.22-.29c-4.89-6.42-7.37-14.54-7.37-24.12,0-12.92,4.18-19.18,12.71-19.15A10.73,10.73,0,0,1,1742,46.4c3,3,4.55,8.48,4.53,16.21,0,9.52-2.48,17.63-7.48,24.12l-.23.29,2.83,7.67.63-.24c10.77-4.17,16.23-14.89,16.23-31.84,0-20.25-8.24-30.51-24.5-30.51s-24.65,10.26-24.72,30.52C1709.39,79.54,1714.87,90.25,1725.57,94.46Z"/><path class="cls-1" d="M1092.08,176.15l.28-19.57h-9.71l.29,19.33c-19.23,1.13-29,14.66-29,40.22.07,28.24,11.35,42.55,33.53,42.55h.14c21.71,0,32.77-14.2,32.85-42.2C1120.49,190.68,1110.93,177.12,1092.08,176.15Zm-9.14,8.94-.28,29.47h9.7l-.28-29.52c11.05,3.27,16.65,13.73,16.65,31.09,0,21.38-7,31.77-21.39,31.77-5.77,0-10.42-1.76-13.81-5.18-5-5.07-7.53-14-7.47-26.59h0C1066,198.76,1071.67,188.32,1082.95,185.09Z"/><path class="cls-1" d="M1181.6,197.11c0-15.76-7.76-23.77-23.06-23.81-15.53,0-23.41,7-23.41,20.72.08,12.26,5.76,19.48,16.88,21.45l.78.14V203.87l-.51-.12c-3.74-.88-5.55-4.16-5.51-10a8.35,8.35,0,0,1,2.17-6.18c1.9-1.91,5.13-2.88,9.72-2.88,3.5,0,6.18.92,8,2.73,2,2,3,5.31,3,9.72v38.11c.06,4.27-1,7.5-3,9.59s-5.25,3.14-9.49,3.14h-.23c-4.13,0-7.27-1-9.32-3.07s-3.19-5.35-3.21-9.52l1.93-7.74-11.37-3-2.52,10.62c.12,15.6,8.43,23.51,24.72,23.51s24.5-8.12,24.5-24.15Z"/><path class="cls-1" d="M1243.29,146.09h-12v33.16a15.12,15.12,0,0,0-12.28-6h-.24c-14.77,0-22.3,7.45-22.38,22.15,0,11.79,5.79,18.6,17.3,20.25l.76.11V204.63l-.68,0a4.3,4.3,0,0,1-3.24-1.16c-1.42-1.4-2.13-4.09-2.1-8,0-7.27,3.38-10.8,10.34-10.8,8.42,0,12.52,5.87,12.52,18v32.6c0,8.57-4.17,12.74-12.75,12.74h-.11c-4,0-7.09-1-9.11-3s-3.17-5.36-3.18-9.6l1.22-7L1196,227.16l-1.93,8.05c0,15.61,8.24,23.52,24.5,23.52s24.72-7.91,24.72-23.52Z"/><path class="cls-1" d="M1256.33,203.81c0,20.2,8.24,30.55,24.5,30.75,16.25,0,24.52-10.34,24.55-30.75,0-20.2-8.26-30.47-24.55-30.51-5.11,0-9.51,2.37-13.09,7.05v-16c0-5.89,2.37-8.79,7.24-8.85h23.69V144.38H1275c-6,0-10.57,1.58-13.68,4.7-3.32,3.33-5,8.47-5,15.27Zm11.41,0c0-12.86,4.15-19.12,12.58-19.15a11.58,11.58,0,0,1,8.53,3.14c3,3.06,4.58,8.44,4.56,16,0,13.2-4.12,19.64-12.57,19.68C1272,223.45,1267.74,217,1267.74,203.81Z"/><path class="cls-1" d="M1342,173.3c-16.33,0-24.65,10.26-24.72,30.52.11,16.92,5.6,27.63,16.29,31.83l.64.25,2.76-7.68-.22-.29c-4.89-6.41-7.37-14.53-7.37-24.12,0-12.89,4.13-19.15,12.63-19.15h.08a10.72,10.72,0,0,1,7.9,2.94c3,3,4.55,8.48,4.53,16.21,0,9.52-2.48,17.63-7.48,24.12l-.22.29,2.82,7.67.63-.24c10.78-4.17,16.24-14.88,16.24-31.84C1366.5,183.57,1358.26,173.3,1342,173.3Z"/><path class="cls-1" d="M1427.39,232.75c0-9.77-4.47-15.83-13.41-18,7.8-4.43,11.73-10.73,11.7-18.76,0-5.76-1.73-10.43-5.18-13.89-5-5.06-13.9-7.62-26.31-7.62h-.89v11.29h1.63c12.67,0,19.1,3.44,19.1,10.22,0,8.69-3.68,12.94-11.25,13h-6.68v11.18h6.68c8.46,0,12.57,4.13,12.57,12.63V235c0,8.62-4.11,12.8-12.57,12.8-4.17,0-7.33-1-9.39-3.11s-3.15-5.37-3.13-9.59l.73-5-11.37-.64-1.23,5.5c0,15.72,8.2,23.69,24.38,23.69s24.57-8,24.61-23.69Z"/><path class="cls-1" d="M1472.58,173.19h-.09c-5.3,0-9.58,3.29-12.76,9.8-2.68-6.51-8.77-9.8-18.13-9.8h-3.46v11h3.53c8.39,0,12.5,3.46,12.57,10.6l.55,12.27h10l.6-12.3c0-6.65,2.07-9.9,6.33-9.94,4.61,0,6.89,4,7,12.24v38.15c0,8.57-4.13,12.74-12.63,12.74s-12.86-4.17-12.86-12.66l1.74-14.37-11.4-1.88-1.68,16.18c0,15.61,8.14,23.56,24.21,23.63s24.07-8,24.15-23.63V197.06c0-7.87-1.51-13.86-4.43-17.83S1478.4,173.19,1472.58,173.19Z"/><path class="cls-1" d="M1585.54,201.42h0c0-18.65-7.93-28.11-23.58-28.11-8.19.08-14.19,3.55-17.87,10.33-3.71-6.82-9.68-10.29-17.76-10.33l-5.24,2.14c8.26-10,23.68-17.83,45.9-23.23l.74-.18-4-10.18-.56.14c-24.72,6.2-41.13,14.8-48.79,25.59s-11.57,22.1-11.64,33.85c.15,18.09,8.92,29.43,26.05,33.69l.82.21v-11l-.41-.17c-9.67-4-14.37-11.43-14.37-22.7s3.92-16.7,12-16.7c3.55,0,6.33,1,8.26,2.93,2.44,2.46,3.66,6.57,3.62,12.25l.66,14.27h9.52l.66-14.3c0-10.2,3.94-15.15,12.05-15.15h.07c7.92,0,11.8,5.47,11.88,16.7s-4.93,18.89-14.65,22.7l-.42.17v11l.82-.2C1576.59,230.85,1585.43,219.51,1585.54,201.42Z"/><path class="cls-1" d="M1622.17,173.3c-16.33,0-24.65,10.26-24.72,30.52.11,16.92,5.6,27.63,16.29,31.83l.64.25,2.76-7.68-.22-.29c-4.89-6.41-7.37-14.53-7.37-24.12,0-12.89,4.13-19.15,12.63-19.15h.08a10.72,10.72,0,0,1,7.9,2.94c3,3,4.55,8.48,4.53,16.21,0,9.52-2.48,17.63-7.48,24.12l-.22.29,2.82,7.67.63-.24c10.78-4.17,16.24-14.88,16.24-31.84C1646.66,183.57,1638.42,173.3,1622.17,173.3Z"/><path class="cls-1" d="M1078.72,323.73c-16.35,0-24.68,10.27-24.75,30.55.11,16.94,5.6,27.66,16.31,31.87l.64.25,2.76-7.69-.22-.29c-4.9-6.42-7.38-14.54-7.38-24.14,0-12.9,4.14-19.17,12.65-19.17h.08a10.73,10.73,0,0,1,7.91,2.95c3,3,4.56,8.48,4.53,16.23,0,9.52-2.48,17.65-7.48,24.14l-.22.29,2.82,7.68.63-.24c10.79-4.18,16.25-14.9,16.25-31.87C1103.24,334,1095,323.73,1078.72,323.73Z"/><path class="cls-1" d="M1140.24,323.73c-5.12,0-9.52,2.37-13.1,7.06v-16c0-5.9,2.38-8.79,7.25-8.86h23.72V294.78h-23.72c-6,0-10.58,1.58-13.7,4.71-3.32,3.33-5,8.47-5,15.29v39.51c0,20.22,8.25,30.58,24.52,30.78,16.27,0,24.54-10.35,24.58-30.78C1164.81,334,1156.55,323.77,1140.24,323.73Zm12.58,30.54c0,13.22-4.12,19.66-12.58,19.7-8.82,0-13.11-6.49-13.11-19.7,0-12.87,4.15-19.14,12.58-19.17a11.57,11.57,0,0,1,8.54,3.15C1151.31,341.31,1152.84,346.7,1152.82,354.27Z"/><path class="cls-1" d="M1213.78,331.16c0-2,1.25-3.8,3.81-5.4l.71-.45-7.33-7.14-.44.26c-5.2,3.11-7.85,7.66-7.89,13.53,0,2.59,1.23,5,3.66,7.21,5.22,4.66,7.86,9.94,7.86,15.68,0,12.87-4,19.12-12.25,19.12h-.08a11.22,11.22,0,0,1-8.29-3.06c-3-3-4.55-8.44-4.5-16.06V296.49h-11.76v58.36c0,20,8.29,30.2,24.63,30.2,16.16,0,24.35-10.16,24.35-30.2,0-5.82-2.87-11.5-8.52-16.89C1215.12,335.44,1213.78,333.15,1213.78,331.16Z"/><path class="cls-1" d="M1275.18,334.76c6.55-4.27,9.87-9.51,9.87-15.58,0-10.7-6-16.94-17.93-18.54-11.2-2-13.05-4.15-13.16-5.26l-.06-.6h-11.7v.66c0,7.08,6.06,11.54,18,13.27,8.74.74,13,4.13,13,10.35,0,6.89-3.13,10.24-9.43,10.24h-7.66v11.36h6.57c3.92,0,7,1.07,9.05,3.16,2.49,2.52,3.74,6.63,3.71,12.24.06,6.88-1.35,11.83-4.18,14.72-2.05,2.09-4.94,3.16-8.57,3.19-4.19,0-7.35-1.17-9.38-3.37s-3.07-5.61-3-10.08v-6.45h-12.11v6.56c0,16.2,8.25,24.41,24.52,24.41,16.42,0,24.75-9.76,24.75-29C1287.41,345.36,1283.29,338.2,1275.18,334.76Z"/><path class="cls-1" d="M1325.54,323.73c-15.54,0-23.43,7-23.43,20.74.08,12.27,5.76,19.5,16.9,21.47l.78.14V354.33l-.51-.12c-3.75-.89-5.55-4.17-5.52-10a8.36,8.36,0,0,1,2.17-6.19c1.9-1.92,5.13-2.88,9.73-2.88,3.5,0,6.19.92,8,2.73,2,2,3,5.31,3,9.73v38.15c.06,4.28-1,7.51-3,9.6s-5.37,3.17-9.74,3.14c-4.13,0-7.27-1-9.33-3.07s-3.19-5.36-3.21-9.52l1.94-7.74-11.38-3-2.53,10.63c.12,15.62,8.44,23.54,24.75,23.54s24.52-8.13,24.52-24.17V347.56C1348.62,331.79,1340.86,323.77,1325.54,323.73Z"/><path class="cls-1" d="M1398.38,329.69a15.12,15.12,0,0,0-12.28-6h-.24c-14.78,0-22.32,7.46-22.4,22.18,0,11.79,5.78,18.61,17.31,20.27l.76.11v-11.2l-.68,0a4.3,4.3,0,0,1-3.24-1.16c-1.42-1.4-2.13-4.1-2.1-8,0-7.27,3.39-10.81,10.35-10.81,8.43,0,12.53,5.88,12.53,18V385.7c0,8.58-4.17,12.75-12.76,12.75h-.11c-4,0-7.1-1-9.12-3s-3.17-5.37-3.18-9.61l1.21-7L1363,377.64l-1.93,8.06c0,15.62,8.25,23.54,24.52,23.54,16.42,0,24.75-7.92,24.75-23.54V296.49h-12Z"/><path class="cls-1" d="M1461,326.58l.28-19.59h-9.72l.29,19.35c-19.25,1.13-29,14.67-29,40.26.07,28.26,11.36,42.59,33.56,42.59h.14c21.74,0,32.8-14.21,32.88-42.24C1489.44,341.13,1479.88,327.55,1461,326.58Zm-9.15,8.95-.28,29.5h9.71l-.28-29.55c11.06,3.28,16.67,13.74,16.67,31.13,0,21.4-7,31.8-21.41,31.8-5.78,0-10.43-1.76-13.83-5.18-5-5.07-7.54-14-7.47-26.62h0C1434.89,349.21,1440.57,338.76,1451.86,335.53Z"/><path class="cls-1" d="M1526.1,323.73c-16.34,0-24.67,10.27-24.75,30.55.11,16.94,5.6,27.66,16.31,31.87l.64.25,2.76-7.69-.22-.29c-4.9-6.42-7.38-14.55-7.38-24.14,0-12.9,4.14-19.17,12.65-19.17h.08a10.74,10.74,0,0,1,7.91,2.95c3,3,4.56,8.48,4.53,16.23,0,9.52-2.48,17.65-7.49,24.14l-.23.29,2.83,7.68.63-.24c10.78-4.18,16.25-14.9,16.25-31.87C1550.62,334,1542.37,323.73,1526.1,323.73Z"/><path class="cls-1" d="M1621.85,323.73c-8.19.08-14.2,3.56-17.89,10.34-3.72-6.82-9.69-10.3-17.78-10.34l-5.25,2.14c8.27-10,23.7-17.85,45.94-23.26l.74-.18-4-10.19-.56.14c-24.74,6.2-41.17,14.81-48.84,25.61s-11.58,22.12-11.65,33.88c.15,18.11,8.92,29.46,26.08,33.72l.82.21v-11l-.41-.17c-9.68-4-14.38-11.44-14.38-22.72s3.93-16.72,12-16.72c3.56,0,6.34,1,8.27,2.93,2.44,2.46,3.66,6.58,3.62,12.26l.66,14.29h9.52l.66-14.32c0-10.21,3.94-15.17,12.07-15.17h.07c7.92,0,11.81,5.47,11.89,16.72s-4.93,18.91-14.66,22.72l-.42.17v11l.82-.2c17.34-4.27,26.19-15.61,26.31-33.72h0C1645.46,333.2,1637.52,323.73,1621.85,323.73Z"/><path class="cls-1" d="M1683.55,323.73c-15.55,0-23.43,7-23.43,20.74.08,12.27,5.76,19.49,16.9,21.47l.78.14V354.33l-.51-.12c-3.75-.89-5.55-4.17-5.51-10a8.36,8.36,0,0,1,2.16-6.19q2.85-2.87,9.73-2.88c3.5,0,6.19.92,8,2.73,2,2,3,5.32,3,9.73v38.15c.06,4.28-1,7.51-3,9.6s-5.25,3.14-9.5,3.14h-.23c-4.14,0-7.27-1-9.33-3.07s-3.19-5.36-3.21-9.52l1.94-7.74-11.38-3-2.53,10.63c.12,15.62,8.44,23.54,24.75,23.54s24.52-8.13,24.52-24.17V347.56C1706.64,331.79,1698.87,323.77,1683.55,323.73Z"/><path class="cls-1" d="M1751.07,323.89l0-8.46c-1.81-8.49-5.3-13.33-10.37-14.39-4.51-1-6.7-2.83-6.7-5.71v-.66h-11.76v.66c0,7.37,2.92,11.66,8.69,12.74,5.12.87,7.87,3.46,8.4,7.84v7.92c-13.28,2.31-20.07,12.55-20.19,30.45.15,20.42,8.53,30.77,24.9,30.77h.07c15.86,0,23.91-10.4,23.95-30.78C1768,337.29,1762.29,327.07,1751.07,323.89Zm5.44,30.38c0,8.06-1.53,13.72-4.62,16.8a10.48,10.48,0,0,1-7.72,2.9H1744a11.28,11.28,0,0,1-8.3-3.08c-3.13-3.12-4.72-8.71-4.72-16.62,0-8.73,1.65-14.85,5-18.18a11.16,11.16,0,0,1,8.24-3.12C1752.45,333,1756.47,339.94,1756.51,354.27Z"/><path class="cls-1" d="M1810.06,331.93c-3.47-1.49-5.5-4.55-6.2-9.35l-.08-.57H1792l.13.78c1.75,10,7.4,16.55,16.77,19.42,5.61,3.53,8.31,8.05,8.28,13.84,0,12-4.06,17.88-12.53,17.92-3.74,0-6.67-1-8.72-3.1-2.62-2.63-3.94-7-3.93-13l1.8-8.32-11.25-2.65-2.64,10.83c.11,18,8.36,27.19,24.52,27.27h.08c8,0,14.15-2.45,18.21-7.3s6.1-12.12,6.12-21.7C1828.87,345.14,1822.54,337,1810.06,331.93Z"/></g></g></svg>