<svg xmlns="http://www.w3.org/2000/svg" viewBox="0 0 724.51 390.81"><defs><style>.cls-1{fill:#fff;}</style></defs><title>PTI Lettermrk_Eng_White_RGB</title><g id="Layer_2" data-name="Layer 2"><g id="Layer_1-2" data-name="Layer 1"><path class="cls-1" d="M620.48,390.81V0h104V390.81Z"/><polygon class="cls-1" points="573.61 0 263.95 0 336.36 79.29 388.2 79.29 388.2 390.81 492.23 390.81 492.23 79.29 573.61 79.29 573.61 0"/><path class="cls-1" d="M297.26,101.5l-72.12-79-9.93-10.87C192.11,3.9,164.79,0,133.83,0H0V390.81H104v-126H144c91.66,0,155.76-44.42,155.76-135.52A154.15,154.15,0,0,0,297.26,101.5ZM157.57,182H104V82.88h53.54l45.13,49.55Z"/></g></g></svg>