<svg xmlns="http://www.w3.org/2000/svg" viewBox="0 0 889.21 390.81"><defs><style>.cls-1{fill:#fff;}</style></defs><title>PTI Lettermrk_White_RGB</title><g id="Layer_2" data-name="Layer 2"><g id="Layer_1-2" data-name="Layer 1"><path class="cls-1" d="M857.79,52c-21.38-34.47-52.16-52-92-52-39.23,0-70,17.52-91.51,52.07-20.85,33.53-31.51,78.21-31.66,132.8,0,48.26,8.78,113.83,26.1,194.89l1.13,5.3h78.54l-2.69-8.66a663.33,663.33,0,0,1-29.91-196.76c.16-39.34,5.43-68.54,15.68-86.8C741,75.82,752.6,67.19,766,67.19c13.16-.8,24.57,7.76,34.34,25.27,10.41,18.7,15.69,48,15.69,87.16a703.87,703.87,0,0,1-27.55,196.89L786,385.06h76.6l1.1-5.33c16.92-81.4,25.5-147,25.5-194.86C889.21,130.29,878.64,85.58,857.79,52Z"/><path class="cls-1" d="M240.12,103.43c0-44.91-20.44-70.8-60.75-77-48-7.32-49.38-17-49.38-18.11V1.67h-83V8.37c0,43.56,22.24,67.62,66.34,71.49h29.15l27.33,30-27.33,30H99.73l-.54,60.47,32.55.3c15.09,0,25.45,3.87,31.65,11.82,6.64,8.5,10,21.24,10,37.88,0,31.36-5.14,52.05-14.86,59.85a59.64,59.64,0,0,1-35.25,13.4,47.31,47.31,0,0,1-35.54-15.17C78.08,298.28,73.17,281,73.17,257c0-11.54,1.43-20.7,5.26-34.08L7.17,203C2.08,223.32,0,240.53,0,257c0,42.43,11.85,75.69,35.21,98.88s53,34.91,88.08,34.91c34.64,0,64.19-11.83,87.84-35.15s35.6-58.94,35.44-105.79c.16-26.29-12.45-52.86-37.5-79C229.68,154.69,240.12,132,240.12,103.43Z"/><path class="cls-1" d="M550.13,62.38h0c-25.93-22.49-50.4-36.14-72.8-40.62l4.59-19.14H404.15L409,18.82c.35,1.14.68,2.34,1,3.57l-.84,61.5-2.57,135.2,73.21,20.38L474.51,83.89c12.57,7.23,23.61,17.79,32.89,31.45,11.58,17,17.45,46.71,17.45,88.2,0,36.54-6.35,65.59-18.87,86.35-12,19.84-32.72,30.86-61.49,32.76-27.54,0-48.16-10.69-61.3-31.77-13.76-22.08-20.75-51.07-20.75-86.15,0-42.34,5.69-72.76,16.92-90.4a117.35,117.35,0,0,1,7.29-10.11L387.77,30c-16.56,7.61-35.08,19.9-53.19,36-30.07,26.72-45.31,73-45.31,137.51,0,53.21,12.92,97.87,38.42,132.74,26,35.55,64.76,53.57,115.32,53.57h1.35c46.88,0,84.55-16.92,112-50.27,27.2-33,41.23-78.46,41.71-135.34C595.5,135.51,579.38,87.78,550.13,62.38Z"/></g></g></svg>