<?xml version="1.0" encoding="utf-8"?>
<!-- Generator: Adobe Illustrator 21.0.0, SVG Export Plug-In . SVG Version: 6.00 Build 0)  -->
<svg version="1.1" id="Layer_1" xmlns="http://www.w3.org/2000/svg" xmlns:xlink="http://www.w3.org/1999/xlink" x="0px" y="0px"
	 viewBox="0 0 24 24" style="enable-background:new 0 0 24 24;" xml:space="preserve">
<style type="text/css">
	.st0{filter:url(#Adobe_OpacityMaskFilter);}
	.st1{fill:#FFFFFF;}
	.st2{mask:url(#c);}
	.st3{filter:url(#Adobe_OpacityMaskFilter_1_);}
	.st4{mask:url(#d);}
</style>
<g>
	<g>
		<path id="b_1_" d="M11,16H9c-0.6,0-1-0.4-1-1s0.4-1,1-1h2v-2c0-0.6,0.4-1,1-1s1,0.4,1,1v2h2c0.6,0,1,0.4,1,1s-0.4,1-1,1h-2v2
			c0,0.6-0.4,1-1,1s-1-0.4-1-1V16z M19,9h-5c-0.6,0-1-0.4-1-1V3H6C5.4,3,5,3.4,5,4v16c0,0.6,0.4,1,1,1h12c0.6,0,1-0.4,1-1V9h1
			c0.5,0,0.9-0.4,1-0.8c0,0.1,0,0.2,0,0.2V20c0,1.7-1.3,3-3,3H6c-1.7,0-3-1.3-3-3V4c0-1.7,1.3-3,3-3h8c0.3,0,0.5,0.1,0.7,0.3l6,6
			C20.9,7.4,21,7.9,21,8.2L19,9z M15,4.4V7h2.6L15,4.4z"/>
	</g>
	<defs>
		<filter id="Adobe_OpacityMaskFilter" filterUnits="userSpaceOnUse" x="-4.6" y="-4.6" width="33.3" height="33.3">
			<feColorMatrix  type="matrix" values="1 0 0 0 0  0 1 0 0 0  0 0 1 0 0  0 0 0 1 0"/>
		</filter>
	</defs>
	<mask maskUnits="userSpaceOnUse" x="-4.6" y="-4.6" width="33.3" height="33.3" id="c">
		<g class="st0">
			<path id="b" class="st1" d="M11,16H9c-0.6,0-1-0.4-1-1s0.4-1,1-1h2v-2c0-0.6,0.4-1,1-1s1,0.4,1,1v2h2c0.6,0,1,0.4,1,1s-0.4,1-1,1
				h-2v2c0,0.6-0.4,1-1,1s-1-0.4-1-1V16z M19,9h-5c-0.6,0-1-0.4-1-1V3H6C5.4,3,5,3.4,5,4v16c0,0.6,0.4,1,1,1h12c0.6,0,1-0.4,1-1V9h1
				c0.5,0,0.9-0.4,1-0.8c0,0.1,0,0.2,0,0.2V20c0,1.7-1.3,3-3,3H6c-1.7,0-3-1.3-3-3V4c0-1.7,1.3-3,3-3h8c0.3,0,0.5,0.1,0.7,0.3l6,6
				C20.9,7.4,21,7.9,21,8.2L19,9z M15,4.4V7h2.6L15,4.4z"/>
		</g>
	</mask>
	<g class="st2">
		<defs>
			<filter id="Adobe_OpacityMaskFilter_1_" filterUnits="userSpaceOnUse" x="-4.6" y="-4.6" width="33.3" height="33.3">
				<feColorMatrix  type="matrix" values="1 0 0 0 0  0 1 0 0 0  0 0 1 0 0  0 0 0 1 0"/>
			</filter>
		</defs>
		<mask maskUnits="userSpaceOnUse" x="-4.6" y="-4.6" width="33.3" height="33.3" id="d">
			<g class="st3">
				<path id="a" class="st1" d="M-2.6-2.6h33.3v33.3H-2.6V-2.6z"/>
			</g>
		</mask>
		<g transform="translate(-2 -2)" class="st4">
			<path d="M0,0h28v28H0V0z"/>
			<g>
				<path id="a_1_" class="st1" d="M-2.6-2.6h33.3v33.3H-2.6V-2.6z"/>
			</g>
		</g>
	</g>
</g>
</svg>
