<svg id="Layer_1" data-name="Layer 1" xmlns="http://www.w3.org/2000/svg" viewBox="0 0 32 18"><title>passenger-car-symbol-black</title><path d="M5.09,0A2.22,2.22,0,0,0,2.91,2.23V3.34H1.45A1.48,1.48,0,0,0,0,4.82V9.28a1.48,1.48,0,0,0,1.46,1.48H2.91v1.11A2.22,2.22,0,0,0,5.09,14.1H5.9a3.61,3.61,0,0,0,7.11,0H21.9a3.61,3.61,0,0,0,7.11,0h.81A2.22,2.22,0,0,0,32,11.87V7.79a2.1,2.1,0,0,0-.68-1.53A3.14,3.14,0,0,0,30,5.59l-5.17-1.4L22.43.34A.72.72,0,0,0,21.82,0H5.09Zm0,1.48H21.42l2.33,3.73a.72.72,0,0,0,.43.31L29.64,7a1.8,1.8,0,0,1,.72.36.47.47,0,0,1,.19.42v4.08a.72.72,0,0,1-.73.74H29a3.61,3.61,0,0,0-7.11,0H13a3.61,3.61,0,0,0-7.11,0H5.09a.72.72,0,0,1-.73-.74V2.23A.72.72,0,0,1,5.09,1.48Zm.66.74A.74.74,0,0,0,5.09,3v3a.74.74,0,0,0,.73.74h4.36a.73.73,0,0,0,.68-.49l1.09-3a.75.75,0,0,0-.09-.68.72.72,0,0,0-.6-.32H5.75Zm8,0a.73.73,0,0,0-.61.47L12,5.67a.75.75,0,0,0,.08.69.72.72,0,0,0,.6.32h9.45a.72.72,0,0,0,.63-.38.75.75,0,0,0,0-.75L21,2.57a.72.72,0,0,0-.61-.35H13.75ZM6.55,3.71h3.67L9.67,5.19H6.55Zm7.77,0H20l.91,1.48h-7.1ZM1.46,4.82H2.91V9.28H1.46Zm11.2,2.6a.73.73,0,0,0-.61.4.76.76,0,0,0,0,.74.72.72,0,0,0,.65.34h2.18a.73.73,0,0,0,.64-.37.76.76,0,0,0,0-.75.72.72,0,0,0-.64-.37H12.66Zm-3.2,3.71a2.23,2.23,0,1,1-2.18,2.23A2.19,2.19,0,0,1,9.45,11.13Zm16,0a2.23,2.23,0,1,1-2.18,2.23A2.19,2.19,0,0,1,25.45,11.13Zm-16,1.48a.73.73,0,0,0-.73.74h0a.73.73,0,1,0,.73-.74Zm16,0a.73.73,0,0,0-.73.74h0a.73.73,0,1,0,.73-.74Z"/></svg>