<svg id="Layer_1" data-name="Layer 1" xmlns="http://www.w3.org/2000/svg" viewBox="0 0 31 20"><defs><style>.cls-1{fill:#50c4d2;}</style></defs><title>truck-symbol-blue</title><path class="cls-1" d="M.64,0A.72.72,0,0,0,0,.73V15.64a.72.72,0,0,0,.7.73H2.53a3.92,3.92,0,0,0,3.81,3.27,3.92,3.92,0,0,0,3.81-3.27h10.7a3.85,3.85,0,0,0,7.62,0h1.83a.72.72,0,0,0,.7-.73V8.36A.74.74,0,0,0,30.9,8L27.73,2.53a.7.7,0,0,0-.6-.35H21.84V.73a.72.72,0,0,0-.7-.73H.64Zm.77,1.46h19V14.91H10.15a3.92,3.92,0,0,0-3.81-3.27,3.92,3.92,0,0,0-3.81,3.27H1.41ZM21.84,3.64h4.89l.64,1.09H23.18a.72.72,0,0,0-.64.73V8.36a.72.72,0,0,0,.7.73h6.34v1.09H27.76a.72.72,0,0,0-.64.73v1.65a3.77,3.77,0,0,0-5.28.34ZM24,6.18H28.2l.85,1.45H24V6.18Zm4.58,5.45h1.06v.73H28.53v-.73ZM6.34,13.09a2.55,2.55,0,1,1-2.47,2.55,2.5,2.5,0,0,1,2.47-2.55Zm18.32,0a2.55,2.55,0,1,1-2.47,2.55A2.5,2.5,0,0,1,24.66,13.09Zm3.43.73h1.5v1.09H28.47a4,4,0,0,0-.37-1.09Zm-21.75.73A1.09,1.09,0,1,0,7.4,15.63a1.07,1.07,0,0,0-1.06-1.09Zm18.32,0a1.09,1.09,0,1,0,1.06,1.09,1.07,1.07,0,0,0-1.06-1.09Z"/></svg>